<svg width="26" height="26" viewBox="0 0 26 26" fill="none" xmlns="http://www.w3.org/2000/svg">
<path d="M11.3332 22.0001C13.6998 21.9996 15.9982 21.2073 17.8625 19.7494L23.7238 25.6107L25.6092 23.7254L19.7478 17.8641C21.2065 15.9996 21.9993 13.7007 21.9998 11.3334C21.9998 5.45208 17.2145 0.666748 11.3332 0.666748C5.45184 0.666748 0.666504 5.45208 0.666504 11.3334C0.666504 17.2147 5.45184 22.0001 11.3332 22.0001ZM11.3332 3.33341C15.7452 3.33341 19.3332 6.92141 19.3332 11.3334C19.3332 15.7454 15.7452 19.3334 11.3332 19.3334C6.92117 19.3334 3.33317 15.7454 3.33317 11.3334C3.33317 6.92141 6.92117 3.33341 11.3332 3.33341Z" fill="#781496"/>
</svg>
