<svg width="32" height="32" viewBox="0 0 32 32" fill="none" xmlns="http://www.w3.org/2000/svg">
<path d="M13.3334 24.0001C15.7 23.9996 17.9985 23.2073 19.8627 21.7494L25.7241 27.6107L27.6094 25.7254L21.7481 19.8641C23.2067 17.9996 23.9995 15.7007 24.0001 13.3334C24.0001 7.45208 19.2147 2.66675 13.3334 2.66675C7.45208 2.66675 2.66675 7.45208 2.66675 13.3334C2.66675 19.2147 7.45208 24.0001 13.3334 24.0001ZM13.3334 5.33341C17.7454 5.33341 21.3334 8.92141 21.3334 13.3334C21.3334 17.7454 17.7454 21.3334 13.3334 21.3334C8.92141 21.3334 5.33341 17.7454 5.33341 13.3334C5.33341 8.92141 8.92141 5.33341 13.3334 5.33341Z" fill="#781496"/>
<path d="M15.2161 11.4481C15.7214 11.9548 16.0001 12.6241 16.0001 13.3334H18.6668C18.6679 12.6327 18.5302 11.9386 18.2615 11.2914C17.9929 10.6442 17.5986 10.0567 17.1014 9.56278C15.0828 7.54678 11.5828 7.54678 9.56543 9.56278L11.4481 11.4508C12.4614 10.4401 14.2081 10.4428 15.2161 11.4481Z" fill="#781496"/>
</svg>
